<svg id="Layer_1" data-name="Layer 1" xmlns="http://www.w3.org/2000/svg" viewBox="0 0 378.35 94.59"><defs><style>.cls-1{fill:#575756;}.cls-2{fill:#eea83e;}</style></defs><title>DoseTrack</title><path class="cls-1" d="M51.14,18.48V56.29q0,8.79-4.9,13.35T32.06,74.2Q12.9,74.2,12.9,56.29V49.1q0-18.24,17.49-18.24,8.79,0,12.21,5.44V18.48a4.3,4.3,0,0,1,.76-3,4.3,4.3,0,0,1,3-.76h1a4.3,4.3,0,0,1,3,.76A4.3,4.3,0,0,1,51.14,18.48ZM21.52,48.93v7.2q0,5.52,2.26,7.73T32,66.08q5.94,0,8.28-2.26c1.56-1.5,2.34-4.07,2.34-7.69v-7.2q0-5.52-2.34-7.78c-1.56-1.5-4.32-2.26-8.28-2.26s-6.62.76-8.16,2.26S21.52,45.25,21.52,48.93Z"/><path class="cls-1" d="M111.12,68.68V67.59c0-1.45.22-2.39.67-2.8s1.34-.46,2.68-.13a46.35,46.35,0,0,0,12.21,1.59,15.87,15.87,0,0,0,6-.8,2.81,2.81,0,0,0,1.75-2.8,3.37,3.37,0,0,0-1.08-2.59,17.44,17.44,0,0,0-4.27-2.43l-9-4a16,16,0,0,1-6.4-4.52,11.22,11.22,0,0,1-1.88-6.86q0-5.87,3.85-8.62t12.13-2.76a36.07,36.07,0,0,1,9.71,1.26,6.26,6.26,0,0,1,2.88,1.42A4.43,4.43,0,0,1,141,36.3v1c0,1.45-.24,2.39-.71,2.81s-1.38.43-2.72,0a35,35,0,0,0-10-1.34,14.51,14.51,0,0,0-5.69.79,2.72,2.72,0,0,0-1.67,2.64,3.29,3.29,0,0,0,.84,2.38,10,10,0,0,0,3.09,1.89l9.71,4.18q4.85,2,6.9,4.68a11.4,11.4,0,0,1,2.05,7.12q0,6-4.06,8.86T125.93,74.2a46.13,46.13,0,0,1-11.46-1.42,5.63,5.63,0,0,1-2.72-1.34A4.45,4.45,0,0,1,111.12,68.68Z"/><path class="cls-1" d="M188.18,48.18c0,.22-.06,1.45-.17,3.68a5,5,0,0,1-1.09,3.1,4.92,4.92,0,0,1-3.18.75H160.48v1.84q0,4.61,2.81,6.57c1.86,1.31,4.92,2,9.16,2a44.93,44.93,0,0,0,10.87-1.34c1.34-.33,2.25-.29,2.72.13s.71,1.35.71,2.8v1.09a4.49,4.49,0,0,1-.62,2.8,6,6,0,0,1-2.81,1.3,40.37,40.37,0,0,1-10.87,1.34q-10.63,0-15.61-4.31t-5-13.6V49q0-18.15,18.57-18.15,8.7,0,13.22,4.39T188.18,48.18Zm-27.7-1.59v2.09h19.58V46.59q0-8.28-9.87-8.28Q160.49,38.31,160.48,46.59Z"/><path class="cls-1" d="M194.7,34.29V34a1,1,0,0,1,.92-1l5.77-.5.75-10a.84.84,0,0,1,.93-.84h.41a.74.74,0,0,1,.84.84v10h16.31a1.27,1.27,0,0,1,.92.25,1.3,1.3,0,0,1,.26.92V34a1.28,1.28,0,0,1-.26.92,1.27,1.27,0,0,1-.92.25H204.32V59.89c0,4,.77,6.9,2.3,8.66s3.92,2.64,7.15,2.64a23.78,23.78,0,0,0,8.45-1.26c.78-.33,1.18,0,1.18,1v.41c0,.62-.42,1.09-1.26,1.43A27.33,27.33,0,0,1,213.86,74q-12.47,0-12.47-14.06V35.21h-5.77c-.39,0-.64-.05-.75-.17S194.7,34.68,194.7,34.29Z"/><path class="cls-1" d="M235.19,45.67V72a1.47,1.47,0,0,1-.25,1,1.49,1.49,0,0,1-1,.25h-.42A1,1,0,0,1,232.26,72V45.67q0-13.89,12.13-13.89a19.49,19.49,0,0,1,4,.34,2.15,2.15,0,0,1,1,.37,1.29,1.29,0,0,1,.21.88V34c0,.83-.39,1.17-1.17,1a20.43,20.43,0,0,0-4-.42c-3.29,0-5.64.88-7.07,2.64S235.19,41.77,235.19,45.67Z"/><path class="cls-1" d="M287.23,43.91v17q0,6.95-4,10t-13,3.06a17.33,17.33,0,0,1-9.78-2.76c-2.79-2-4.19-5-4.19-9.21s1.35-7.18,4.06-9,7.07-2.72,13.09-2.72H284.3V43.91q0-4.94-3.05-7.15t-9.5-2.22A35.37,35.37,0,0,0,261,35.88c-.45.11-.74.11-.88,0S260,35.49,260,35v-.67a1.4,1.4,0,0,1,1.26-1.5,41.51,41.51,0,0,1,10.46-1.09Q287.23,31.78,287.23,43.91Zm-2.93,17v-8H273.67q-7.77,0-11.12,2.1t-3.35,7.11a8.16,8.16,0,0,0,2.93,6.82c1.95,1.53,4.66,2.3,8.11,2.3q7.69,0,10.88-2.26T284.3,60.9Z"/><path class="cls-1" d="M301.2,48.6v8.53q0,7.69,3.47,10.88t11.76,3.18a22.25,22.25,0,0,0,9.11-1.59c.78-.34,1.18-.12,1.18.67v.5a1.72,1.72,0,0,1-1.26,1.67A26.3,26.3,0,0,1,316.09,74q-9.29,0-13.55-4t-4.27-12.8V48.6q0-8.37,4.31-12.59T316,31.78a19.22,19.22,0,0,1,8.53,1.59,1.87,1.87,0,0,1,1.25,1.76v.5c0,.72-.41.92-1.25.59a22.08,22.08,0,0,0-8.45-1.68q-8,0-11.46,3.39T301.2,48.6Z"/><path class="cls-1" d="M336.42,72V18.48a1.42,1.42,0,0,1,.25-1,1.43,1.43,0,0,1,1-.26h.42a1.46,1.46,0,0,1,1,.26,1.47,1.47,0,0,1,.25,1V72a1,1,0,0,1-1.26,1.26h-.42a1.49,1.49,0,0,1-1-.25A1.47,1.47,0,0,1,336.42,72Zm9.2-26.69L358,33.62a4.69,4.69,0,0,1,3-1.17h.42c.73,0,1.12.08,1.18.25s-.17.48-.67.92L346.62,48.1a5.06,5.06,0,0,0-1.84,3.59,5.28,5.28,0,0,0,1.84,3.6l17,16.73c.5.5.72.84.67,1s-.45.25-1.17.25h-.42a4.09,4.09,0,0,1-3-1.26L345.62,58.13q-3.51-3.51-3.51-6.52C342.11,49.55,343.28,47.45,345.62,45.33Z"/><g id="_7lAljM.tif" data-name="7lAljM.tif"><path class="cls-2" d="M106.52,53.8a2.34,2.34,0,0,1-2.45,1.62H92A2.23,2.23,0,0,1,89.54,53a8.23,8.23,0,0,0-3.67-6.64L85.26,46a2.14,2.14,0,0,1-.71-3c1-1.76,2-3.49,3-5.24l3.24-5.61A2.22,2.22,0,0,1,92.53,31,2.29,2.29,0,0,1,94,31.3a25.63,25.63,0,0,1,7.42,6.61,25.26,25.26,0,0,1,4.67,10.38c.19.94.29,1.89.43,2.83Z"/><path class="cls-2" d="M76,60.19a3.18,3.18,0,0,1,1.56.56,8.12,8.12,0,0,0,3.58.85,8.22,8.22,0,0,0,3.58-.84A4.28,4.28,0,0,1,86,60.22a2.18,2.18,0,0,1,2.35,1.19q1.44,2.51,2.9,5L94.53,72a2.18,2.18,0,0,1-.89,3.31,25.18,25.18,0,0,1-23,1c-.66-.3-1.31-.62-2-1a2.19,2.19,0,0,1-.89-3.31l5.92-10.31c.12-.21.25-.43.39-.63A2.09,2.09,0,0,1,76,60.19Z"/><path class="cls-2" d="M64.3,55.41c-2,0-4.09,0-6.14,0A2.29,2.29,0,0,1,55.73,53a25.2,25.2,0,0,1,6-16.07,25.78,25.78,0,0,1,6.43-5.52,2.22,2.22,0,0,1,3.43.84q2.35,4,4.69,8.11l1.41,2.44a2.19,2.19,0,0,1-.79,3.28,8.32,8.32,0,0,0-3.94,5.68,10.31,10.31,0,0,0-.15,1.47,2.18,2.18,0,0,1-2.22,2.19C68.46,55.42,66.38,55.41,64.3,55.41Z"/><path class="cls-2" d="M81.13,47.9a5.38,5.38,0,0,1,5.39,5.32,5.37,5.37,0,0,1-10.74,0A5.36,5.36,0,0,1,81.13,47.9Z"/></g><path class="cls-1" d="M75.31,70.43c2-3.67-.88-5.47-.88-5.47l-.34-.2a5.71,5.71,0,0,1-1-.77q-2.35-2.27-2.35-7.72v-.92l-8.64,0v.89q0,9.23,4.7,13.67a12.9,12.9,0,0,0,2.63,1.92C70.06,72.19,73.8,73.27,75.31,70.43Z"/><path class="cls-1" d="M68.61,39.29a4.35,4.35,0,0,0,5.69,1.07A14.81,14.81,0,0,1,81.38,39a18.49,18.49,0,0,1,5.15.61l4.17-7.27a27.52,27.52,0,0,0-9.32-1.39c-5.2,0-9.1,1-11.85,2.62A4,4,0,0,0,68.61,39.29Z"/><path class="cls-1" d="M96.23,49.55c-4.44,0-4.34,3.66-4.34,3.66l0,0v3.1q0,5.32-2.1,7.58L94,71.15a14,14,0,0,0,1.69-1.37q4.82-4.62,4.82-13.51l0-2.59A4,4,0,0,0,96.23,49.55Z"/></svg>